<svg width="200" height="48" viewBox="0 0 200 48" fill="none" xmlns="http://www.w3.org/2000/svg">
<path d="M77.271 23.8984C77.271 26.5525 76.4347 28.8544 74.762 30.8043C73.284 32.5466 71.2087 33.4629 68.5359 33.5531C68.0226 33.5712 66.611 33.5802 64.3012 33.5802C63.8675 33.5802 63.2126 33.5667 62.3364 33.5396C61.4691 33.5125 60.8186 33.499 60.385 33.499C60.1283 33.499 60 33.3952 60 33.1875C60 32.1945 60.0354 30.705 60.1062 28.719C60.1859 26.724 60.2257 25.23 60.2257 24.237C60.2257 23.1988 60.1859 21.6461 60.1062 19.5789C60.0354 17.5026 60 15.9499 60 14.9208C60 14.7312 60.1283 14.6184 60.385 14.5823C61.0133 14.51 62.0444 14.4739 63.4781 14.4739C66.2039 14.4739 67.9695 14.5146 68.7749 14.5958C70.8724 14.8125 72.5141 15.3541 73.7 16.2207C74.8151 17.0332 75.6957 18.1706 76.3417 19.633C76.9612 21.0142 77.271 22.436 77.271 23.8984ZM72.1866 23.8984C72.1866 22.3728 71.7397 21.1271 70.8458 20.1611C69.9431 19.1591 68.7483 18.6581 67.2615 18.6581C65.8986 18.6581 65.2171 18.8432 65.2171 19.2133C65.2171 19.7459 65.2083 20.5493 65.1906 21.6236C65.1729 22.6888 65.164 23.4877 65.164 24.0203C65.164 24.5439 65.1729 25.3338 65.1906 26.39C65.2083 27.4371 65.2171 28.227 65.2171 28.7596C65.2171 29.1478 65.9252 29.3419 67.3412 29.3419C68.8722 29.3419 70.0759 28.8228 70.952 27.7847C71.7751 26.8007 72.1866 25.5053 72.1866 23.8984Z" fill="black"/>
<path d="M84.7184 23.4922C84.7184 24.5574 84.7449 26.1598 84.798 28.2993C84.8511 30.4387 84.8777 32.0411 84.8777 33.1063C84.8777 33.2868 84.8379 33.3997 84.7582 33.4448C84.7405 33.4538 84.6255 33.4719 84.413 33.499C83.8378 33.5712 83.0678 33.6073 82.1032 33.6073C80.8111 33.6073 79.988 33.5712 79.634 33.499C79.3773 33.4448 79.249 33.3049 79.249 33.0792C79.249 33.2237 79.2888 32.4292 79.3685 30.696C79.5278 27.0399 79.6074 24.6387 79.6074 23.4922C79.6074 22.5263 79.5765 21.0774 79.5145 19.1456C79.4526 17.2137 79.4216 15.7648 79.4216 14.7989C79.4216 14.6003 79.5234 14.501 79.7269 14.501C80.0013 14.501 80.4128 14.5146 80.9615 14.5416C81.5191 14.5687 81.935 14.5823 82.2094 14.5823C82.4837 14.5823 82.8864 14.5687 83.4174 14.5416C83.9573 14.5146 84.3644 14.501 84.6387 14.501C84.8954 14.501 85.0237 14.6003 85.0237 14.7989C85.0237 15.7648 84.9706 17.2137 84.8644 19.1456C84.7671 21.0774 84.7184 22.5263 84.7184 23.4922Z" fill="black"/>
<path d="M105.189 14.9208C105.189 15.9499 105.144 17.4981 105.056 19.5653C104.976 21.6236 104.936 23.1717 104.936 24.2099V33.1334C104.936 33.3771 104.808 33.499 104.551 33.499C104.339 33.499 104.016 33.508 103.582 33.5261C103.158 33.5441 102.839 33.5531 102.627 33.5531C102.396 33.5531 102.051 33.5351 101.591 33.499C101.131 33.4629 100.786 33.4448 100.556 33.4448C100.396 33.4448 100.206 33.2959 99.9848 32.998C99.3476 32.1223 97.9139 30.1814 95.6837 27.1754C95.073 26.3358 94.1437 25.0991 92.8959 23.4651C92.8605 23.411 92.7941 23.3568 92.6968 23.3026C92.626 23.3658 92.5906 23.4651 92.5906 23.6005C92.5906 24.6477 92.6171 26.2185 92.6702 28.3128C92.7322 30.4071 92.7631 31.9779 92.7631 33.0251C92.7631 33.341 92.6437 33.499 92.4047 33.499H87.8115C87.5548 33.499 87.4265 33.3591 87.4265 33.0792C87.4265 32.1043 87.4708 30.6328 87.5593 28.6649C87.6566 26.6969 87.7053 25.2209 87.7053 24.237C87.7053 23.1988 87.661 21.6461 87.5725 19.5789C87.4929 17.5116 87.4531 15.9634 87.4531 14.9343C87.4531 14.7357 87.6256 14.6364 87.9708 14.6364C88.4841 14.6364 89.1169 14.6003 89.8691 14.5281C90.0461 14.51 90.3957 14.4514 90.9179 14.3521C91.3604 14.2708 91.71 14.2302 91.9666 14.2302C92.0728 14.2302 92.2365 14.3837 92.4578 14.6906L97.4094 21.61C97.852 22.2329 98.5201 23.1447 99.414 24.3453C99.6353 24.6251 99.8255 24.7651 99.9848 24.7651C100.1 24.7651 100.157 24.413 100.157 23.7089C100.157 22.761 100.104 21.3347 99.9981 19.4299C99.9008 17.5252 99.8521 16.0943 99.8521 15.1374C99.8521 14.8034 99.945 14.6364 100.131 14.6364C100.662 14.6364 101.463 14.6139 102.534 14.5687C103.605 14.5236 104.405 14.501 104.936 14.501C105.105 14.501 105.189 14.6409 105.189 14.9208Z" fill="black"/>
<path d="M126.097 24.0203C126.097 26.8368 125.217 29.1975 123.455 31.1022C121.659 33.0341 119.384 34 116.632 34C113.897 34 111.627 33.0251 109.822 31.0752C108.052 29.1704 107.167 26.8188 107.167 24.0203C107.167 21.2128 108.052 18.8522 109.822 16.9384C111.627 14.9795 113.897 14 116.632 14C119.349 14 121.615 14.9795 123.429 16.9384C125.208 18.8702 126.097 21.2309 126.097 24.0203ZM121.066 23.9932C121.066 22.6391 120.663 21.4882 119.858 20.5403C119.017 19.5473 117.942 19.0508 116.632 19.0508C115.384 19.0508 114.326 19.5653 113.459 20.5944C112.618 21.5875 112.198 22.7294 112.198 24.0203C112.198 25.4015 112.592 26.5525 113.379 27.4733C114.211 28.4392 115.296 28.9221 116.632 28.9221C117.88 28.9221 118.942 28.4121 119.818 27.392C120.65 26.4171 121.066 25.2841 121.066 23.9932Z" fill="black"/>
<path d="M143.979 21.7454C143.979 23.93 143.417 25.6994 142.293 27.0535C141.089 28.4888 139.43 29.2065 137.315 29.2065C136.961 29.2065 136.425 29.1884 135.708 29.1523C135 29.1072 134.469 29.0846 134.115 29.0846C133.735 29.0846 133.544 29.2516 133.544 29.5856C133.544 30.0009 133.584 30.6193 133.664 31.4408C133.744 32.2622 133.783 32.8761 133.783 33.2823C133.783 33.49 133.69 33.5938 133.505 33.5938C132.965 33.5938 132.155 33.5757 131.075 33.5396C129.996 33.5125 129.186 33.499 128.646 33.499C128.389 33.499 128.261 33.3681 128.261 33.1063C128.261 32.1043 128.274 30.6012 128.301 28.5972C128.336 26.5841 128.354 25.0765 128.354 24.0745C128.354 21.2399 128.234 18.2609 127.995 15.1374L127.982 14.9479C127.964 14.7763 128.097 14.6725 128.38 14.6364C129.071 14.5462 130.593 14.501 132.947 14.501C134.337 14.501 135.669 14.5191 136.943 14.5552C139.04 14.6184 140.731 15.2909 142.014 16.5728C143.324 17.8908 143.979 19.615 143.979 21.7454ZM138.682 21.9621C138.682 19.8587 137.677 18.807 135.669 18.807C134.252 18.807 133.509 18.8883 133.438 19.0508C133.376 19.1681 133.345 20.2108 133.345 22.1787C133.345 22.4586 133.354 22.8738 133.372 23.4245C133.398 23.9661 133.412 24.3769 133.412 24.6567C133.412 24.8373 134.208 24.9276 135.801 24.9276C137.722 24.9276 138.682 23.9391 138.682 21.9621Z" fill="black"/>
<path d="M164.25 24.0203C164.25 26.8368 163.369 29.1975 161.608 31.1022C159.812 33.0341 157.537 34 154.785 34C152.05 34 149.78 33.0251 147.975 31.0752C146.205 29.1704 145.32 26.8188 145.32 24.0203C145.32 21.2128 146.205 18.8522 147.975 16.9384C149.78 14.9795 152.05 14 154.785 14C157.502 14 159.767 14.9795 161.582 16.9384C163.361 18.8702 164.25 21.2309 164.25 24.0203ZM159.219 23.9932C159.219 22.6391 158.816 21.4882 158.011 20.5403C157.17 19.5473 156.095 19.0508 154.785 19.0508C153.537 19.0508 152.479 19.5653 151.612 20.5944C150.771 21.5875 150.351 22.7294 150.351 24.0203C150.351 25.4015 150.745 26.5525 151.532 27.4733C152.364 28.4392 153.448 28.9221 154.785 28.9221C156.033 28.9221 157.095 28.4121 157.971 27.392C158.803 26.4171 159.219 25.2841 159.219 23.9932Z" fill="black"/>
<path d="M184.667 24.0203C184.667 26.8368 183.787 29.1975 182.025 31.1022C180.229 33.0341 177.954 34 175.202 34C172.467 34 170.197 33.0251 168.392 31.0752C166.622 29.1704 165.737 26.8188 165.737 24.0203C165.737 21.2128 166.622 18.8522 168.392 16.9384C170.197 14.9795 172.467 14 175.202 14C177.919 14 180.185 14.9795 181.999 16.9384C183.778 18.8702 184.667 21.2309 184.667 24.0203ZM179.636 23.9932C179.636 22.6391 179.233 21.4882 178.428 20.5403C177.587 19.5473 176.512 19.0508 175.202 19.0508C173.954 19.0508 172.897 19.5653 172.029 20.5944C171.188 21.5875 170.768 22.7294 170.768 24.0203C170.768 25.4015 171.162 26.5525 171.95 27.4733C172.781 28.4392 173.866 28.9221 175.202 28.9221C176.45 28.9221 177.512 28.4121 178.388 27.392C179.22 26.4171 179.636 25.2841 179.636 23.9932Z" fill="black"/>
<path d="M198.845 33.7292C198.084 33.7292 197.093 33.7111 195.871 33.675C194.278 33.6389 193.287 33.6163 192.898 33.6073L188.928 33.5531C188.53 33.5622 187.959 33.5441 187.216 33.499C186.959 33.4538 186.831 33.3139 186.831 33.0792C186.831 32.0952 186.844 30.6238 186.871 28.6649C186.906 26.6969 186.924 25.2209 186.924 24.237C186.924 23.1898 186.893 21.6236 186.831 19.5383C186.769 17.4439 186.738 15.8732 186.738 14.826C186.738 14.6274 186.871 14.5281 187.136 14.5281C187.402 14.5281 187.796 14.5416 188.318 14.5687C188.849 14.5958 189.243 14.6093 189.499 14.6093C189.791 14.6093 190.225 14.5958 190.8 14.5687C191.376 14.5326 191.809 14.5146 192.101 14.5146C192.234 14.5146 192.296 14.6003 192.287 14.7718L192.274 14.9479C192.168 16.645 192.048 19.1952 191.915 22.5985L191.902 26.1733C191.902 27.3288 191.907 28.1729 191.915 28.7055C191.924 28.8138 191.933 28.9221 191.942 29.0305C191.951 29.1388 192.017 29.2065 192.141 29.2336C192.15 29.2336 192.265 29.2336 192.486 29.2336C193.283 29.2336 194.473 29.193 196.057 29.1117C197.65 29.0214 198.845 28.9763 199.642 28.9763C199.881 28.9763 200 29.0801 200 29.2877C200 30.8314 199.889 32.1629 199.668 33.2823C199.624 33.517 199.531 33.657 199.389 33.7021C199.345 33.7202 199.164 33.7292 198.845 33.7292Z" fill="black"/>
<circle cx="24" cy="24" r="24" fill="#007DC4"/>
<path fill-rule="evenodd" clip-rule="evenodd" d="M13.3027 19.7123C12.7639 19.6637 12.3978 19.7885 12.2314 20.2388C12.0599 20.701 12.1619 21.113 12.4832 21.4771C12.5312 21.5323 12.5764 21.5918 12.6229 21.6491C13.3949 22.6351 13.8497 23.7335 13.8888 25.0057C13.9199 26.037 13.6263 27.0145 13.4603 28.0132C13.235 29.3668 13.3227 30.6358 14.4008 31.6532C15.0544 32.2683 15.8281 32.7073 16.5799 33.1775C19.0562 34.7239 21.4652 36.3843 24.2978 37.2664C24.8473 37.4371 25.3953 37.7338 25.8458 38.3647C24.9454 38.1777 24.2522 37.7919 23.3993 37.6567C24.6737 38.7123 25.8652 39.7315 27.0936 40.7023C27.4816 41.0109 27.979 41.2163 28.4959 41.1103C29.3508 40.9373 30.181 40.6757 30.8629 40.0906C31.3186 39.7002 31.6241 39.2326 31.5771 38.5959C31.565 38.4449 31.5501 38.2271 31.3938 38.2292C30.9587 38.2314 30.6379 37.942 30.2485 37.8523C28.3814 37.4226 26.9224 36.3742 25.764 34.8826C24.3382 33.043 23.3345 30.9628 22.3801 28.8522C21.4257 26.7415 20.3686 24.6891 18.8827 22.8911C17.9122 21.7198 16.75 20.7737 15.3681 20.1507C14.4516 19.7388 14.3765 19.6026 15.0756 18.9397C15.7934 18.2589 16.4579 18.1323 17.3567 18.5473C18.2353 18.9514 19.0028 19.5408 19.7902 20.0886C23.4646 22.6403 27.2647 24.9548 31.5533 26.332C32.6736 26.6915 33.7872 27.136 34.9885 27.1805C35.5076 27.1998 36.0163 27.2119 36.5279 27.3437C37.0647 27.4839 37.5055 27.8232 38.0523 27.9579C38.8861 28.1603 39.4814 27.7964 39.4753 26.9374C39.4632 25.7151 39.4842 24.4943 39.3503 23.2735C39.2515 22.3744 38.842 21.769 38.0609 21.3496C35.5345 19.9942 33.0119 18.6291 30.6181 17.0444C29.6297 16.3901 28.7904 15.6111 28.1791 14.5858C27.6302 13.6661 27.1857 12.677 26.4518 11.8756C25.2266 10.5417 23.6774 9.6841 22.0742 8.91257C21.5567 8.66516 21.0636 8.58655 20.5146 9.08813C19.4597 10.0472 18.1598 10.5995 16.7563 10.875C15.7226 11.0778 14.6837 11.2305 13.6323 11.3126C12.9137 11.3704 12.222 11.6111 11.613 12.0212C11.0126 12.428 10.8143 13.1409 11.0887 13.8067C11.5575 14.9428 12.169 15.9898 12.9787 16.9217C13.7981 17.8664 13.8109 18.3306 13.046 19.2913C12.8013 19.5969 13.0848 19.5723 13.3027 19.7123Z" fill="white"/>
<path fill-rule="evenodd" clip-rule="evenodd" d="M27.9544 29.4227C28.205 29.4896 28.3407 29.4018 28.4943 29.3327C29.2061 29.0101 29.5308 28.3732 29.8383 27.7212C29.9374 27.5088 30.2154 27.2573 29.8755 27.066C29.6023 26.9121 29.3462 27.0612 29.1838 27.3377C28.7869 28.0201 28.3853 28.696 27.9544 29.4227Z" fill="white"/>
<path fill-rule="evenodd" clip-rule="evenodd" d="M26.9266 28.6386C26.9785 28.675 27.0326 28.7128 27.0831 28.7513C27.6153 28.1543 28.1454 27.5558 28.6782 26.9623C28.8089 26.8153 28.9525 26.6278 28.6735 26.5441C28.4386 26.4727 28.1559 26.0489 27.9349 26.4579C27.5545 27.161 27.2568 27.9097 26.9266 28.6386Z" fill="white"/>
<path fill-rule="evenodd" clip-rule="evenodd" d="M25.9094 27.4502C26.0593 27.4529 26.144 27.345 26.2298 27.2533C26.5095 26.9597 26.7734 26.6488 27.0552 26.3567C27.3356 26.0666 27.3189 25.9 26.9172 25.7305C26.2534 25.4489 26.2205 25.4383 26.0522 26.1349C25.966 26.4927 25.9408 26.8653 25.7881 27.2075C25.7353 27.3316 25.7557 27.4264 25.9094 27.4502Z" fill="white"/>
<path fill-rule="evenodd" clip-rule="evenodd" d="M26.1582 31.5167C26.031 31.5701 25.9866 31.5762 25.967 31.5997C25.7796 31.8278 25.5984 32.0602 25.411 32.2883C25.0866 32.6901 25.2069 33.0405 25.7125 33.1898C25.8992 33.2461 26.0037 33.1984 26.0228 33.0074C26.0721 32.534 26.1102 32.059 26.1582 31.5167Z" fill="white"/>
<path fill-rule="evenodd" clip-rule="evenodd" d="M29.5963 29.8156C30.0251 29.0875 30.4288 28.413 30.8256 27.7307C30.9895 27.452 31.2441 27.305 31.5173 27.459C31.8573 27.6503 31.5792 27.9017 31.4801 28.1142C31.1706 28.7647 30.8444 29.4036 30.134 29.7242C29.9825 29.7947 29.8483 29.8804 29.5963 29.8156Z" fill="white"/>
<path fill-rule="evenodd" clip-rule="evenodd" d="M31.3003 30.1467C31.7312 29.42 32.1342 28.742 32.5317 28.0632C32.6941 27.7866 32.9502 27.6375 33.2213 27.79C33.5613 27.9814 33.2853 28.2342 33.1841 28.4453C32.8767 29.0973 32.5484 29.7347 31.8401 30.0567C31.6844 30.1243 31.5508 30.2136 31.3003 30.1467Z" fill="white"/>
<path fill-rule="evenodd" clip-rule="evenodd" d="M33.0813 30.5841C33.5122 29.8574 33.9152 29.1794 34.3126 28.5006C34.4751 28.2241 34.7312 28.0749 35.0044 28.2288C35.3443 28.4202 35.0663 28.6716 34.9672 28.8841C34.6597 29.5361 34.3329 30.1715 33.6211 30.4941C33.4675 30.5632 33.3318 30.6509 33.0813 30.5841Z" fill="white"/>
<path fill-rule="evenodd" clip-rule="evenodd" d="M35.3253 30.9709C35.7541 30.2428 36.1578 29.5683 36.5546 28.8859C36.7171 28.6094 36.9731 28.4603 37.2443 28.6128C37.5842 28.8041 37.3082 29.057 37.2071 29.268C36.8996 29.92 36.5728 30.5554 35.863 30.8795C35.7115 30.95 35.5758 31.0378 35.3253 30.9709Z" fill="white"/>
<path fill-rule="evenodd" clip-rule="evenodd" d="M22.3868 17.1734C22.0812 17.1145 21.7631 17.0468 21.4475 16.9314C20.9105 16.7384 20.3509 16.6132 19.8026 16.4496C19.3719 16.3217 19.2265 16.0869 19.5201 15.676C20.4073 14.4387 21.892 13.8391 23.1799 14.8886C23.5995 15.2317 23.9275 15.6747 23.8763 16.2614C23.8552 16.5129 22.7468 17.159 22.3868 17.1734Z" fill="#007DC4"/>
<path fill-rule="evenodd" clip-rule="evenodd" d="M27.9141 33.4603C27.866 34.0026 27.828 34.4776 27.7787 34.951C27.7596 35.142 27.655 35.1897 27.4669 35.1355C26.9613 34.9862 26.841 34.6358 27.1654 34.234C27.3507 34.0045 27.5319 33.772 27.7194 33.5439C27.7424 33.5198 27.7869 33.5137 27.9141 33.4603Z" fill="white"/>
<path fill-rule="evenodd" clip-rule="evenodd" d="M28.7647 34.4887C28.7166 35.0311 28.6785 35.5061 28.6292 35.9795C28.6102 36.1705 28.5056 36.2181 28.3189 36.1618C27.8133 36.0126 27.6931 35.6621 28.0174 35.2604C28.2028 35.0308 28.3861 34.7998 28.5714 34.5703C28.593 34.5482 28.6375 34.5422 28.7647 34.4887Z" fill="white"/>
<path fill-rule="evenodd" clip-rule="evenodd" d="M30.0068 35.2895C29.9587 35.8319 29.9186 36.3054 29.8748 36.7796C29.8558 36.9706 29.7492 37.0168 29.5645 36.962C29.0589 36.8127 28.9387 36.4623 29.263 36.0606C29.4484 35.831 29.6317 35.6 29.817 35.3704C29.8351 35.349 29.876 35.3436 30.0068 35.2895Z" fill="white"/>
<path fill-rule="evenodd" clip-rule="evenodd" d="M31.5022 36.0819C31.4542 36.6242 31.4161 37.0993 31.3668 37.5726C31.3477 37.7637 31.2431 37.8113 31.0565 37.755C30.5508 37.6057 30.4306 37.2553 30.755 36.8535C30.9403 36.624 31.1215 36.3915 31.309 36.1634C31.3306 36.1414 31.375 36.1353 31.5022 36.0819Z" fill="white"/>
</svg>
