<svg width="48" height="48" viewBox="0 0 48 48" fill="none" xmlns="http://www.w3.org/2000/svg">
<circle cx="24" cy="24" r="24" fill="#007DC4"/>
<path fill-rule="evenodd" clip-rule="evenodd" d="M13.3027 19.7123C12.7639 19.6637 12.3978 19.7885 12.2314 20.2388C12.0599 20.701 12.1619 21.113 12.4832 21.4771C12.5312 21.5323 12.5764 21.5918 12.6229 21.6491C13.3949 22.6351 13.8497 23.7335 13.8888 25.0057C13.9199 26.037 13.6263 27.0145 13.4603 28.0132C13.235 29.3668 13.3227 30.6358 14.4008 31.6532C15.0544 32.2683 15.8281 32.7073 16.5799 33.1775C19.0562 34.7239 21.4652 36.3843 24.2978 37.2664C24.8473 37.4371 25.3953 37.7338 25.8458 38.3647C24.9454 38.1777 24.2522 37.7919 23.3993 37.6567C24.6737 38.7123 25.8652 39.7315 27.0936 40.7023C27.4816 41.0109 27.979 41.2163 28.4959 41.1103C29.3508 40.9373 30.181 40.6757 30.8629 40.0906C31.3186 39.7002 31.6241 39.2326 31.5771 38.5959C31.565 38.4449 31.5501 38.2271 31.3938 38.2292C30.9587 38.2314 30.6379 37.942 30.2485 37.8523C28.3814 37.4226 26.9224 36.3742 25.764 34.8826C24.3382 33.043 23.3345 30.9628 22.3801 28.8522C21.4257 26.7415 20.3686 24.6891 18.8827 22.8911C17.9122 21.7198 16.75 20.7737 15.3681 20.1507C14.4516 19.7388 14.3765 19.6026 15.0756 18.9397C15.7934 18.2589 16.4579 18.1323 17.3567 18.5473C18.2353 18.9514 19.0028 19.5408 19.7902 20.0886C23.4646 22.6403 27.2647 24.9548 31.5533 26.332C32.6736 26.6915 33.7872 27.136 34.9885 27.1805C35.5076 27.1998 36.0163 27.2119 36.5279 27.3437C37.0647 27.4839 37.5055 27.8232 38.0523 27.9579C38.8861 28.1603 39.4814 27.7964 39.4753 26.9374C39.4632 25.7151 39.4842 24.4943 39.3503 23.2735C39.2515 22.3744 38.842 21.769 38.0609 21.3496C35.5345 19.9942 33.0119 18.6291 30.6181 17.0444C29.6297 16.3901 28.7904 15.6111 28.1791 14.5858C27.6302 13.6661 27.1857 12.677 26.4518 11.8756C25.2266 10.5417 23.6774 9.6841 22.0742 8.91257C21.5567 8.66516 21.0636 8.58655 20.5146 9.08813C19.4597 10.0472 18.1598 10.5995 16.7563 10.875C15.7226 11.0778 14.6837 11.2305 13.6323 11.3126C12.9137 11.3704 12.222 11.6111 11.613 12.0212C11.0126 12.428 10.8143 13.1409 11.0887 13.8067C11.5575 14.9428 12.169 15.9898 12.9787 16.9217C13.7981 17.8664 13.8109 18.3306 13.046 19.2913C12.8013 19.5969 13.0848 19.5723 13.3027 19.7123Z" fill="white"/>
<path fill-rule="evenodd" clip-rule="evenodd" d="M27.9544 29.4227C28.205 29.4896 28.3407 29.4018 28.4943 29.3327C29.2061 29.0101 29.5308 28.3732 29.8383 27.7212C29.9374 27.5088 30.2154 27.2573 29.8755 27.066C29.6023 26.9121 29.3462 27.0612 29.1838 27.3377C28.7869 28.0201 28.3853 28.696 27.9544 29.4227Z" fill="white"/>
<path fill-rule="evenodd" clip-rule="evenodd" d="M26.9266 28.6386C26.9785 28.675 27.0326 28.7128 27.0831 28.7513C27.6153 28.1543 28.1454 27.5558 28.6782 26.9623C28.8089 26.8153 28.9525 26.6278 28.6735 26.5441C28.4386 26.4727 28.1559 26.0489 27.9349 26.4579C27.5545 27.161 27.2568 27.9097 26.9266 28.6386Z" fill="white"/>
<path fill-rule="evenodd" clip-rule="evenodd" d="M25.9094 27.4502C26.0593 27.4529 26.144 27.345 26.2298 27.2533C26.5095 26.9597 26.7734 26.6488 27.0552 26.3567C27.3356 26.0666 27.3189 25.9 26.9172 25.7305C26.2534 25.4489 26.2205 25.4383 26.0522 26.1349C25.966 26.4927 25.9408 26.8653 25.7881 27.2075C25.7353 27.3316 25.7557 27.4264 25.9094 27.4502Z" fill="white"/>
<path fill-rule="evenodd" clip-rule="evenodd" d="M26.1582 31.5167C26.031 31.5701 25.9866 31.5762 25.967 31.5997C25.7796 31.8278 25.5984 32.0602 25.411 32.2883C25.0866 32.6901 25.2069 33.0405 25.7125 33.1898C25.8992 33.2461 26.0037 33.1984 26.0228 33.0074C26.0721 32.534 26.1102 32.059 26.1582 31.5167Z" fill="white"/>
<path fill-rule="evenodd" clip-rule="evenodd" d="M29.5963 29.8156C30.0251 29.0875 30.4288 28.413 30.8256 27.7307C30.9895 27.452 31.2441 27.305 31.5173 27.459C31.8573 27.6503 31.5792 27.9017 31.4801 28.1142C31.1706 28.7647 30.8444 29.4036 30.134 29.7242C29.9825 29.7947 29.8483 29.8804 29.5963 29.8156Z" fill="white"/>
<path fill-rule="evenodd" clip-rule="evenodd" d="M31.3003 30.1467C31.7312 29.42 32.1342 28.742 32.5317 28.0632C32.6941 27.7866 32.9502 27.6375 33.2213 27.79C33.5613 27.9814 33.2853 28.2342 33.1841 28.4453C32.8767 29.0973 32.5484 29.7347 31.8401 30.0567C31.6844 30.1243 31.5508 30.2136 31.3003 30.1467Z" fill="white"/>
<path fill-rule="evenodd" clip-rule="evenodd" d="M33.0813 30.5841C33.5122 29.8574 33.9152 29.1794 34.3126 28.5006C34.4751 28.2241 34.7312 28.0749 35.0044 28.2288C35.3443 28.4202 35.0663 28.6716 34.9672 28.8841C34.6597 29.5361 34.3329 30.1715 33.6211 30.4941C33.4675 30.5632 33.3318 30.6509 33.0813 30.5841Z" fill="white"/>
<path fill-rule="evenodd" clip-rule="evenodd" d="M35.3253 30.9709C35.7541 30.2428 36.1578 29.5683 36.5546 28.8859C36.7171 28.6094 36.9731 28.4603 37.2443 28.6128C37.5842 28.8041 37.3082 29.057 37.2071 29.268C36.8996 29.92 36.5728 30.5554 35.863 30.8795C35.7115 30.95 35.5758 31.0378 35.3253 30.9709Z" fill="white"/>
<path fill-rule="evenodd" clip-rule="evenodd" d="M22.3868 17.1734C22.0812 17.1145 21.7631 17.0468 21.4475 16.9314C20.9105 16.7384 20.3509 16.6132 19.8026 16.4496C19.3719 16.3217 19.2265 16.0869 19.5201 15.676C20.4073 14.4387 21.892 13.8391 23.1799 14.8886C23.5995 15.2317 23.9275 15.6747 23.8763 16.2614C23.8552 16.5129 22.7468 17.159 22.3868 17.1734Z" fill="#007DC4"/>
<path fill-rule="evenodd" clip-rule="evenodd" d="M27.9141 33.4603C27.866 34.0026 27.828 34.4776 27.7787 34.951C27.7596 35.142 27.655 35.1897 27.4669 35.1355C26.9613 34.9862 26.841 34.6358 27.1654 34.234C27.3507 34.0045 27.5319 33.772 27.7194 33.5439C27.7424 33.5198 27.7869 33.5137 27.9141 33.4603Z" fill="white"/>
<path fill-rule="evenodd" clip-rule="evenodd" d="M28.7647 34.4887C28.7166 35.0311 28.6785 35.5061 28.6292 35.9795C28.6102 36.1705 28.5056 36.2181 28.3189 36.1618C27.8133 36.0126 27.6931 35.6621 28.0174 35.2604C28.2028 35.0308 28.3861 34.7998 28.5714 34.5703C28.593 34.5482 28.6375 34.5422 28.7647 34.4887Z" fill="white"/>
<path fill-rule="evenodd" clip-rule="evenodd" d="M30.0068 35.2895C29.9587 35.8319 29.9186 36.3054 29.8748 36.7796C29.8558 36.9706 29.7492 37.0168 29.5645 36.962C29.0589 36.8127 28.9387 36.4623 29.263 36.0606C29.4484 35.831 29.6317 35.6 29.817 35.3704C29.8351 35.349 29.876 35.3436 30.0068 35.2895Z" fill="white"/>
<path fill-rule="evenodd" clip-rule="evenodd" d="M31.5022 36.0819C31.4542 36.6242 31.4161 37.0993 31.3668 37.5726C31.3477 37.7637 31.2431 37.8113 31.0565 37.755C30.5508 37.6057 30.4306 37.2553 30.755 36.8535C30.9403 36.624 31.1215 36.3915 31.309 36.1634C31.3306 36.1414 31.375 36.1353 31.5022 36.0819Z" fill="white"/>
</svg>
