<svg width="96" height="83" viewBox="0 0 96 83" fill="none" xmlns="http://www.w3.org/2000/svg">
<g clip-path="url(#clip0_309_173)">
<path d="M46.9925 82.6088C24.1807 82.6088 5.68808 64.1162 5.68808 41.3044C5.68807 18.4926 24.1807 5.60522e-06 46.9925 3.61095e-06C69.8043 1.61668e-06 88.2969 18.4926 88.2969 41.3044C88.2969 64.1162 69.8043 82.6088 46.9925 82.6088Z" fill="#2A1F37"/>
<path d="M46.9925 82.6088C24.1807 82.6088 5.68808 64.1162 5.68808 41.3044C5.68807 18.4926 24.1807 5.60522e-06 46.9925 3.61095e-06C69.8043 1.61668e-06 88.2969 18.4926 88.2969 41.3044C88.2969 64.1162 69.8043 82.6088 46.9925 82.6088Z" fill="url(#paint0_linear_309_173)"/>
<path d="M46.9947 76.0869C27.7848 76.0869 12.2121 60.5142 12.2121 41.3043C12.2121 22.0944 27.7848 6.52173 46.9947 6.52173C66.2046 6.52173 81.7773 22.0944 81.7773 41.3043C81.7773 60.5142 66.2046 76.0869 46.9947 76.0869Z" fill="#2A1F37"/>
<path opacity="0.76" d="M46.9969 69.5653C31.3889 69.5653 18.736 56.9124 18.736 41.3044C18.736 25.6963 31.3888 13.0435 46.9969 13.0435C62.605 13.0435 75.2578 25.6963 75.2578 41.3044C75.2578 56.9124 62.605 69.5653 46.9969 69.5653Z" fill="url(#paint1_linear_309_173)" fill-opacity="0.99"/>
<path fill-rule="evenodd" clip-rule="evenodd" d="M43.8165 64.0024C46.2029 61.6796 50.7658 54.9911 49.9258 46.8199C48.8758 36.6059 36.9423 28.6189 28.5432 25.8192C28.1973 25.7039 27.82 25.5793 27.415 25.4457C20.1099 23.0344 3.79991 17.6509 0.00125433 9.78223C-0.0623844 14.8097 2.27316 26.0101 12.1244 30.5921C15.5107 32.0121 19.4108 32.9322 23.0778 33.7972C29.0245 35.2001 34.3581 36.4583 35.8933 39.4697C33.1216 37.1179 28.1329 36.4474 22.7722 35.727C15.9477 34.8097 8.52028 33.8115 4.29673 29.1602C3.81944 36.0332 11.7425 44.4335 19.6655 46.2472C23.0721 47.027 26.2316 46.9421 29.0985 46.8651C32.8995 46.763 36.1862 46.6747 38.8525 48.6336C36.3553 47.6582 32.4545 47.8948 28.239 48.1506C22.1414 48.5206 15.3852 48.9305 11.2652 45.7699C12.347 49.7473 17.3936 57.4921 28.9249 56.6521C43.3391 55.6021 44.2939 59.6113 43.8165 64.0024ZM47.1574 61.2341C48.5892 59.0068 51.3002 53.0056 50.6893 46.8199C50.2369 42.238 46.8699 37.1787 46.0119 36.6059C45.9801 35.3013 46.1646 32.0049 47.1574 29.2557C45.1719 28.5684 42.5118 29.2238 41.4299 29.6375C42.5436 27.251 46.9092 22.6309 55.4622 23.2418C54.0113 21.3326 52.0576 21.1099 51.2621 21.2372C53.6167 20.0599 60.3306 18.4116 68.3491 21.2372C69.7237 19.0989 71.7219 18.8189 72.5492 18.9462L71.0219 22.3827C72.231 23.2418 74.8593 25.2464 75.6993 26.3919L78.1812 25.9146L79.0404 26.3919V25.5328L83.8133 24.5782L84.5769 25.2464L84.7678 24.2918L95.0773 22.3827L82.5723 27.8238L81.3314 26.8692V28.3011L77.7039 30.2102C78.7858 32.5649 81.0259 38.1333 81.3314 41.5698C80.9813 42.5243 79.7658 44.5289 77.7039 44.9108C76.2721 42.5243 74.3629 39.5651 71.0219 38.706C67.6809 37.8469 64.7217 37.0832 65.6762 32.6922C60.9988 38.706 59.4715 41.3788 59.7578 51.6883C58.0014 51.6883 56.3532 51.8156 55.7486 51.8792C57.3078 52.3247 61.2852 53.082 64.7217 52.5474C69.0173 51.8792 69.8764 52.8338 69.9718 57.034C70.0482 60.3941 70.0037 65.4343 69.9718 67.5343C68.89 69.1889 66.3254 72.4027 64.7217 72.0209C62.8889 68.4316 62.6216 66.1343 62.717 65.4343C63.8307 65.4024 66.3444 65.6061 67.4899 66.6752C67.3945 62.0932 66.3444 58.2749 65.2944 57.3203C64.8438 56.9107 63.8659 57.2217 61.8554 57.8612C59.1806 58.712 54.6779 60.1442 47.1574 61.2341ZM75.4162 32.7551C75.4835 32.8745 75.5442 32.982 75.5984 33.0745C71.3026 31.929 71.3982 29.8608 71.7801 28.9698C73.6697 29.657 74.8122 31.6836 75.4162 32.7551Z" fill="url(#paint2_linear_309_173)"/>
</g>
<defs>
<linearGradient id="paint0_linear_309_173" x1="6" y1="28.5" x2="6" y2="83" gradientUnits="userSpaceOnUse">
<stop stop-color="#B469FF"/>
<stop offset="1" stop-color="#BB29FF" stop-opacity="0"/>
</linearGradient>
<linearGradient id="paint1_linear_309_173" x1="19" y1="20" x2="18.736" y2="97.8261" gradientUnits="userSpaceOnUse">
<stop stop-color="#D21DFF"/>
<stop offset="0.784587" stop-color="#3E2D4F" stop-opacity="0"/>
</linearGradient>
<linearGradient id="paint2_linear_309_173" x1="47.5387" y1="9.78223" x2="47.5387" y2="72.0521" gradientUnits="userSpaceOnUse">
<stop stop-color="#E859FF"/>
<stop offset="1" stop-color="#9745FF"/>
</linearGradient>
<clipPath id="clip0_309_173">
<rect width="96" height="83" fill="white"/>
</clipPath>
</defs>
</svg>
